<svg aria-hidden="true" style="position:absolute;width:0;height:0" xmlns="http://www.w3.org/2000/svg" overflow="hidden">
    <defs>
        <symbol id="arrow-left" viewBox="0 0 24 24">
            <path d="M15.41 16.59L10.83 12l4.58-4.59L14 6l-6 6 6 6z"/>
        </symbol>
        <symbol id="arrow-right" viewBox="0 0 24 24">
            <path d="M8.59 16.59L13.17 12l-4.58-4.59L10 6l6 6-6 6z"/>
        </symbol>
        <symbol id="arrow-down" width="28" height="28" viewBox="0 0 28 28" fill="none">
            <circle cx="14" cy="14" r="14" transform="rotate(90 14 14)" fill="white" fill-opacity="0.2" />
            <path d="M18 12L14 16L10 12" stroke="white" stroke-width="1.5" />
        </symbol>
        <symbol id="star" width="22" height="20" viewBox="0 0 22 20" fill="none">
            <path d="M12.9941 7.75488L13.1064 8.10059H19.9229L14.7021 11.8936L14.4082 12.1074L14.5205 12.4531L16.5146 18.5898L11.2939 14.7969L11 14.584L10.7061 14.7969L5.48438 18.5898L7.47949 12.4531L7.5918 12.1074L7.29785 11.8936L2.07715 8.10059H8.89355L9.00586 7.75488L11 1.61719L12.9941 7.75488Z" stroke="#7E8691"/>
        </symbol>
        <symbol id="location" width="22" height="22" viewBox="0 0 22 22" fill="none">
            <circle cx="11" cy="11" r="8" stroke="#AEB3B9" stroke-width="2"/>
            <rect x="10" width="2" height="4" fill="#AEB3B9"/>
            <rect x="10" y="18" width="2" height="4" fill="#AEB3B9"/>
            <rect x="4" y="10" width="2" height="4" transform="rotate(90 4 10)" fill="#AEB3B9"/>
            <rect x="22" y="10" width="2" height="4" transform="rotate(90 22 10)" fill="#AEB3B9"/>
        </symbol>
        <symbol id="circle-left" width="28" height="28" viewBox="0 0 28 28" fill="none">
            <circle cx="14" cy="14" r="14" fill="white" fill-opacity="0.2" />
            <path d="M12 11L16 15L12 19" stroke-width="1.5" fill="black" />
        </symbol>
        <symbol id="vertical-line" width="1" height="40" viewBox="0 0 1 40" fill="white">
            <path d="M0.5 0V40" stroke="#27384A"/>
        </symbol>
        <symbol id="sunrise" width="20" height="20" viewBox="0 0 20 20" fill="none" >
            <path d="M10 3.18918C10.3236 3.18918 10.5859 2.92684 10.5859 2.60324V0.585938C10.5859 0.262344 10.3236 0 10 0C9.67641 0 9.41406 0.262344 9.41406 0.585938V2.60324C9.41406 2.92684 9.67641 3.18918 10 3.18918Z" fill="#FF6B09"/>
            <path d="M19.414 9.41406H17.3967C17.0731 9.41406 16.8108 9.67641 16.8108 10C16.8108 10.3236 17.0731 10.5859 17.3967 10.5859H19.414C19.7376 10.5859 20 10.3236 20 10C20 9.67641 19.7376 9.41406 19.414 9.41406Z" fill="#FF6B09"/>
            <path d="M3.18918 10C3.18918 9.67641 2.92684 9.41406 2.60324 9.41406H0.585938C0.262344 9.41406 0 9.67641 0 10C0 10.3236 0.262344 10.5859 0.585938 10.5859H2.60324C2.92684 10.5859 3.18918 10.3236 3.18918 10Z" fill="#FF6B09"/>
            <path d="M15.2304 5.35552C15.3803 5.35552 15.5303 5.29829 15.6447 5.18388L17.0711 3.7574C17.2999 3.52857 17.2999 3.15759 17.0711 2.92876C16.8423 2.69997 16.4713 2.69997 16.2425 2.92876L14.816 4.35525C14.5872 4.58408 14.5872 4.95505 14.816 5.18388C14.9305 5.29833 15.0804 5.35552 15.2304 5.35552Z" fill="#FF6B09"/>
            <path d="M15.6447 14.8159C15.4159 14.5871 15.0449 14.5871 14.816 14.8159C14.5872 15.0447 14.5872 15.4157 14.816 15.6445L16.2425 17.071C16.3569 17.1854 16.5069 17.2426 16.6568 17.2426C16.8067 17.2426 16.9567 17.1854 17.0711 17.071C17.2999 16.8422 17.2999 16.4712 17.0711 16.2424L15.6447 14.8159Z" fill="#FF6B09"/>
            <path d="M4.35543 14.8158L2.92895 16.2423C2.70012 16.4711 2.70012 16.8421 2.92895 17.071C3.04336 17.1854 3.19332 17.2426 3.34324 17.2426C3.49316 17.2426 3.64317 17.1854 3.75754 17.071L5.18399 15.6445C5.41282 15.4157 5.41282 15.0447 5.18399 14.8158C4.95524 14.5871 4.58422 14.5871 4.35543 14.8158Z" fill="#FF6B09"/>
            <path d="M4.35539 5.1839C4.4698 5.29832 4.61977 5.35554 4.76969 5.35554C4.91961 5.35554 5.06961 5.29832 5.18398 5.1839C5.41281 4.95511 5.41281 4.5841 5.18398 4.35527L3.75758 2.92882C3.52879 2.70004 3.15777 2.70004 2.92895 2.92882C2.70012 3.15761 2.70012 3.52863 2.92895 3.75746L4.35539 5.1839Z" fill="#FF6B09"/>
            <path d="M12.6138 3.71079C12.6873 3.74134 12.7635 3.75579 12.8384 3.75579C13.0681 3.75579 13.2861 3.61989 13.3797 3.39458L14.1538 1.53177C14.278 1.23294 14.1365 0.890008 13.8376 0.765828C13.5388 0.641687 13.1959 0.783172 13.0717 1.08208L12.2976 2.94489C12.1734 3.24368 12.315 3.58657 12.6138 3.71079Z" fill="#FF6B09"/>
            <path d="M18.9181 13.0717L17.0553 12.2976C16.7565 12.1734 16.4136 12.3149 16.2894 12.6138C16.1652 12.9126 16.3068 13.2555 16.6056 13.3797L18.4684 14.1539C18.542 14.1844 18.6181 14.1989 18.6931 14.1989C18.9227 14.1989 19.1407 14.063 19.2344 13.8376C19.3585 13.5388 19.217 13.1959 18.9181 13.0717Z" fill="#FF6B09"/>
            <path d="M7.38624 16.2894C7.08745 16.1652 6.74452 16.3068 6.6203 16.6056L5.84616 18.4684C5.72198 18.7672 5.86354 19.1102 6.16237 19.2343C6.23589 19.2649 6.31206 19.2793 6.38698 19.2793C6.61663 19.2793 6.83464 19.1434 6.92827 18.9181L7.70241 17.0553C7.82663 16.7565 7.68507 16.4136 7.38624 16.2894Z" fill="#FF6B09"/>
            <path d="M1.08196 6.92817L2.94477 7.70231C3.01829 7.73286 3.09446 7.74731 3.16938 7.74731C3.39903 7.74731 3.61704 7.61141 3.71067 7.3861C3.83485 7.08727 3.69329 6.74434 3.39446 6.62016L1.53165 5.84602C1.23298 5.72188 0.88993 5.8634 0.765712 6.16223C0.641532 6.46106 0.783134 6.80399 1.08196 6.92817Z" fill="#FF6B09"/>
            <path d="M16.2955 7.40088C16.3888 7.62685 16.6071 7.76338 16.8373 7.76338C16.9118 7.76338 16.9875 7.74908 17.0607 7.71889L18.9253 6.94908C19.2244 6.82556 19.3668 6.48298 19.2434 6.18388C19.1198 5.88474 18.7772 5.7424 18.4782 5.86583L16.6135 6.63564C16.3144 6.7592 16.172 7.10177 16.2955 7.40088Z" fill="#FF6B09"/>
            <path d="M13.3643 16.6136C13.2408 16.3144 12.8982 16.1721 12.5991 16.2955C12.3 16.419 12.1576 16.7616 12.2811 17.0607L13.0509 18.9253C13.1442 19.1513 13.3625 19.2878 13.5927 19.2878C13.6672 19.2878 13.7429 19.2735 13.8161 19.2433C14.1152 19.1198 14.2576 18.7772 14.1341 18.4781L13.3643 16.6136Z" fill="#FF6B09"/>
            <path d="M3.7045 12.5991C3.58102 12.3 3.23848 12.1577 2.9393 12.2811L1.07465 13.0509C0.77555 13.1744 0.633168 13.517 0.756644 13.8161C0.849925 14.0421 1.06828 14.1786 1.29848 14.1786C1.37297 14.1786 1.44871 14.1643 1.52184 14.1341L3.38649 13.3643C3.68563 13.2408 3.82801 12.8982 3.7045 12.5991Z" fill="#FF6B09"/>
            <path d="M6.63582 3.38662C6.7291 3.61264 6.94746 3.74912 7.17766 3.74912C7.25215 3.74912 7.32789 3.73483 7.40102 3.70463C7.70012 3.58115 7.8425 3.23854 7.71902 2.93944L6.94922 1.07483C6.82574 0.775686 6.48317 0.633342 6.18403 0.75678C5.88492 0.880256 5.74254 1.22287 5.86602 1.52198L6.63582 3.38662Z" fill="#FF6B09"/>
            <path d="M10.5859 15.398C13.3053 15.1048 15.4297 12.7959 15.4297 10C15.4297 7.00605 12.994 4.57031 10 4.57031C7.00602 4.57031 4.57031 7.00605 4.57031 10C4.57031 12.7959 6.69469 15.1048 9.41406 15.398V19.4141C9.41406 19.7377 9.67641 20 10 20C10.3236 20 10.5859 19.7377 10.5859 19.4141V15.398ZM5.74219 10C5.74219 7.65223 7.65223 5.74219 10 5.74219C12.3478 5.74219 14.2578 7.65223 14.2578 10C14.2578 12.149 12.6574 13.9309 10.5859 14.2173V11.9812L10.7185 12.1137C10.9473 12.3425 11.3183 12.3425 11.5471 12.1137C11.776 11.885 11.776 11.5139 11.5471 11.2851L10.4113 10.1493C10.1848 9.92281 9.81844 9.92016 9.58871 10.1434L8.4168 11.2818C8.18469 11.5073 8.1793 11.8783 8.4048 12.1104C8.51969 12.2286 8.6723 12.288 8.82512 12.288C8.97223 12.288 9.11949 12.233 9.23336 12.1224L9.41406 11.9468V14.2174C7.34258 13.9309 5.74219 12.1489 5.74219 10Z" fill="#FF6B09"/>
        </symbol>
        <symbol id="sunset" width="20" height="20" viewBox="0 0 20 20" fill="none" >
            <path d="M10 3.18918C10.3236 3.18918 10.5859 2.92684 10.5859 2.60324V0.585938C10.5859 0.262344 10.3236 0 10 0C9.67641 0 9.41406 0.262344 9.41406 0.585938V2.60324C9.41406 2.92684 9.67641 3.18918 10 3.18918Z" fill="#FF6B09" />
            <path d="M19.414 9.41406H17.3967C17.0731 9.41406 16.8108 9.67641 16.8108 10C16.8108 10.3236 17.0731 10.5859 17.3967 10.5859H19.414C19.7376 10.5859 20 10.3236 20 10C20 9.67641 19.7376 9.41406 19.414 9.41406Z" fill="#FF6B09" />
            <path d="M3.18918 10C3.18918 9.67641 2.92684 9.41406 2.60324 9.41406H0.585938C0.262344 9.41406 0 9.67641 0 10C0 10.3236 0.262344 10.5859 0.585938 10.5859H2.60324C2.92684 10.5859 3.18918 10.3236 3.18918 10Z" fill="#FF6B09" />
            <path d="M15.2304 5.35554C15.3803 5.35554 15.5303 5.29832 15.6447 5.1839L17.0711 3.75746C17.2999 3.52867 17.2999 3.15765 17.0711 2.92882C16.8423 2.70004 16.4713 2.70004 16.2425 2.92882L14.816 4.35527C14.5872 4.58406 14.5872 4.95507 14.816 5.1839C14.9305 5.29836 15.0804 5.35554 15.2304 5.35554Z" fill="#FF6B09" />
            <path d="M15.6447 14.8159C15.4159 14.5871 15.0449 14.5871 14.816 14.8159C14.5872 15.0447 14.5872 15.4157 14.816 15.6445L16.2425 17.071C16.3569 17.1854 16.5069 17.2426 16.6568 17.2426C16.8067 17.2426 16.9567 17.1854 17.0711 17.071C17.2999 16.8422 17.2999 16.4712 17.0711 16.2424L15.6447 14.8159Z" fill="#FF6B09" />
            <path d="M4.35539 14.8158L2.92895 16.2423C2.70012 16.4712 2.70012 16.8421 2.92895 17.071C3.04336 17.1854 3.19332 17.2426 3.34324 17.2426C3.49317 17.2426 3.64317 17.1854 3.75754 17.071L5.18399 15.6445C5.41282 15.4157 5.41282 15.0447 5.18399 14.8158C4.95524 14.5871 4.58418 14.5871 4.35539 14.8158Z" fill="#FF6B09" />
            <path d="M4.35543 5.1839C4.46985 5.29832 4.61981 5.35554 4.76973 5.35554C4.91965 5.35554 5.06965 5.29832 5.18403 5.1839C5.41286 4.95507 5.41286 4.5841 5.18403 4.35527L3.75758 2.92882C3.52879 2.70004 3.15777 2.70004 2.92895 2.92882C2.70012 3.15765 2.70012 3.52863 2.92895 3.75746L4.35543 5.1839Z" fill="#FF6B09" />
            <path d="M12.6138 3.71079C12.6873 3.74134 12.7635 3.75579 12.8384 3.75579C13.0681 3.75579 13.2861 3.61989 13.3797 3.39458L14.1538 1.53177C14.278 1.23294 14.1365 0.890008 13.8376 0.765828C13.5388 0.641687 13.1959 0.783172 13.0717 1.08208L12.2976 2.94489C12.1734 3.24368 12.315 3.58657 12.6138 3.71079Z" fill="#FF6B09" />
            <path d="M18.918 13.0717L17.0552 12.2976C16.7563 12.1734 16.4135 12.3149 16.2893 12.6138C16.1651 12.9126 16.3067 13.2555 16.6055 13.3797L18.4683 14.1539C18.5418 14.1844 18.618 14.1989 18.6929 14.1989C18.9226 14.1989 19.1406 14.063 19.2342 13.8377C19.3584 13.5389 19.2168 13.1959 18.918 13.0717Z" fill="#FF6B09" />
            <path d="M7.38636 16.2893C7.0875 16.1651 6.74461 16.3066 6.62043 16.6055L5.84628 18.4683C5.7221 18.7671 5.86367 19.1101 6.1625 19.2342C6.23605 19.2648 6.31218 19.2792 6.38714 19.2792C6.61679 19.2792 6.8348 19.1433 6.92843 18.918L7.70257 17.0552C7.82672 16.7564 7.68515 16.4135 7.38636 16.2893Z" fill="#FF6B09" />
            <path d="M1.08193 6.92817L2.94474 7.70231C3.0183 7.73286 3.09443 7.74731 3.16939 7.74731C3.39904 7.74731 3.61705 7.61141 3.71068 7.3861C3.83486 7.08727 3.6933 6.74434 3.39447 6.62016L1.53166 5.84602C1.23283 5.72188 0.889897 5.8634 0.765718 6.16223C0.641538 6.46106 0.7831 6.80399 1.08193 6.92817Z" fill="#FF6B09" />
            <path d="M16.2955 7.40088C16.3888 7.62685 16.6071 7.76338 16.8373 7.76338C16.9118 7.76338 16.9875 7.74908 17.0607 7.71889L18.9253 6.94908C19.2244 6.82556 19.3668 6.48298 19.2433 6.18388C19.1198 5.88474 18.7771 5.7424 18.4781 5.86583L16.6135 6.63564C16.3143 6.7592 16.172 7.10177 16.2955 7.40088Z" fill="#FF6B09" />
            <path d="M13.3642 16.6136C13.2407 16.3144 12.898 16.1721 12.599 16.2955C12.2999 16.419 12.1575 16.7616 12.2809 17.0607L13.0507 18.9254C13.1441 19.1513 13.3624 19.2879 13.5926 19.2879C13.6671 19.2879 13.7428 19.2736 13.8159 19.2434C14.115 19.1199 14.2575 18.7773 14.134 18.4782L13.3642 16.6136Z" fill="#FF6B09" />
            <path d="M3.70462 12.5989C3.5811 12.2998 3.23848 12.1575 2.93942 12.2809L1.07481 13.0507C0.775672 13.1742 0.633289 13.5168 0.756766 13.8159C0.850086 14.0419 1.06845 14.1784 1.2986 14.1784C1.37309 14.1784 1.44884 14.1641 1.52196 14.1339L3.38657 13.3641C3.68575 13.2406 3.82809 12.898 3.70462 12.5989Z" fill="#FF6B09" />
            <path d="M6.6357 3.38665C6.72902 3.61262 6.94738 3.74915 7.17754 3.74915C7.25203 3.74915 7.32777 3.73485 7.4009 3.70466C7.70004 3.58114 7.84242 3.23856 7.71894 2.93946L6.94914 1.07485C6.82562 0.775749 6.48297 0.633405 6.18394 0.756804C5.8848 0.88032 5.74242 1.2229 5.8659 1.522L6.6357 3.38665Z" fill="#FF6B09" />
            <path d="M10.7185 17.8639L10.5859 17.9965V15.398C13.3053 15.1048 15.4297 12.796 15.4297 10C15.4297 7.00611 12.9939 4.57037 10 4.57037C7.00605 4.57037 4.57031 7.00611 4.57031 10C4.57031 12.796 6.69469 15.1049 9.41406 15.398V18.0309L9.23332 17.8554C9.00125 17.6299 8.63027 17.6353 8.40477 17.8673C8.1793 18.0995 8.18465 18.4704 8.41676 18.6959L9.58871 19.8344C9.7025 19.9449 9.84977 20 9.99695 20C10.147 20 10.297 19.9427 10.4113 19.8284L11.5471 18.6926C11.7759 18.4638 11.7759 18.0928 11.5471 17.8639C11.3183 17.6351 10.9473 17.6351 10.7185 17.8639ZM5.74219 10C5.74219 7.65224 7.65223 5.7422 10 5.7422C12.3478 5.7422 14.2578 7.65224 14.2578 10C14.2578 12.149 12.6574 13.9309 10.5859 14.2173V12.8264C10.5859 12.5028 10.3236 12.2405 10 12.2405C9.67641 12.2405 9.41406 12.5028 9.41406 12.8264V14.2173C7.34258 13.9309 5.74219 12.149 5.74219 10Z" fill="#FF6B09" />
        </symbol>
        <symbol id="wind" width="20" height="20" viewBox="0 0 20 20" fill="none">
            <path d="M15.8222 1.6521C14.8746 1.6521 13.9458 1.97882 13.2069 2.57206C12.9545 2.77468 12.9142 3.14343 13.1168 3.39577C13.3194 3.64808 13.6882 3.68847 13.9405 3.48585C14.4722 3.05901 15.1404 2.82397 15.8222 2.82397C17.4797 2.82397 18.8281 4.17237 18.8281 5.8298C18.8281 7.48722 17.4796 8.83562 15.8222 8.83562H4.80457C4.48097 8.83562 4.21863 9.09796 4.21863 9.42155C4.21863 9.74515 4.48097 10.0075 4.80457 10.0075H15.8222C18.1258 10.0075 19.9999 8.13339 19.9999 5.8298C19.9999 3.5262 18.1258 1.6521 15.8222 1.6521Z" fill="white" fill-opacity="0.54" />
            <path d="M3.68213 7.66772H9.94139C10.265 7.66772 10.5273 7.40538 10.5273 7.08179C10.5273 6.75819 10.265 6.49585 9.94139 6.49585H3.68213C3.35854 6.49585 3.09619 6.75819 3.09619 7.08179C3.09619 7.40538 3.35854 7.66772 3.68213 7.66772Z" fill="white" fill-opacity="0.54" />
            <path d="M9.77715 11.1833H0.585938C0.262344 11.1833 0 11.4457 0 11.7693C0 12.0929 0.262344 12.3552 0.585938 12.3552H9.77715C11.1062 12.3552 12.1876 13.4365 12.1876 14.7656C12.1876 16.0947 11.1062 17.176 9.77715 17.176C9.23039 17.176 8.69453 16.9875 8.26816 16.6452C8.01586 16.4426 7.64707 16.483 7.44445 16.7353C7.24184 16.9876 7.28219 17.3564 7.53453 17.559C8.16816 18.0677 8.96461 18.3478 9.77715 18.3478C11.7524 18.3478 13.3595 16.7408 13.3595 14.7656C13.3595 12.7903 11.7524 11.1833 9.77715 11.1833Z" fill="white" fill-opacity="0.54" />
            <path d="M0.585938 7.66772H1.37637C1.69996 7.66772 1.9623 7.40538 1.9623 7.08179C1.9623 6.75819 1.69996 6.49585 1.37637 6.49585H0.585938C0.262344 6.49585 0 6.75819 0 7.08179C0 7.40538 0.262344 7.66772 0.585938 7.66772Z" fill="white" fill-opacity="0.54" />
            <path d="M7.65625 14.1016C7.65625 13.778 7.39391 13.5156 7.07031 13.5156H3.55469C3.23109 13.5156 2.96875 13.778 2.96875 14.1016C2.96875 14.4252 3.23109 14.6875 3.55469 14.6875H7.07031C7.39395 14.6875 7.65625 14.4252 7.65625 14.1016Z" fill="white" fill-opacity="0.54" />
        </symbol>
        <symbol id="humidity" width="20" height="20" viewBox="0 0 20 20" fill="none">
            <path fill-rule="evenodd" clip-rule="evenodd" d="M17.8877 5.87409C17.5148 5.23588 17.1162 4.63252 16.7652 4.17506C16.2479 3.50068 15.9424 3.26165 15.5976 3.26165C15.2708 3.26165 15.005 3.49056 14.7065 3.83427C14.4867 4.08736 14.2247 4.4383 13.9488 4.849C13.5536 5.43756 13.174 6.07944 12.8495 6.70225C12.5018 6.03577 12.1768 5.46139 11.9366 5.05018C11.1847 3.76353 10.3829 2.54946 9.67875 1.63153C8.52394 0.126094 8.08976 0 7.77347 0C7.45718 0 7.02299 0.126094 5.86811 1.63157C5.16396 2.5495 4.36212 3.76357 3.61032 5.05022C2.70684 6.59635 0.605469 10.4497 0.605469 12.832C0.605469 16.7845 3.82103 20 7.77347 20C11.4819 20 14.5415 17.1692 14.9052 13.5551C15.1325 13.597 15.3638 13.6189 15.5976 13.6189C17.6913 13.6189 19.3946 11.9156 19.3946 9.82191C19.3946 8.63074 18.4505 6.83718 17.8877 5.87409ZM7.77347 18.8281C4.4672 18.8281 1.77735 16.1383 1.77735 12.832C1.77735 11.4363 2.77708 8.85824 4.45166 5.93592C5.94639 3.32751 7.27905 1.65028 7.77347 1.23668C8.26788 1.65028 9.60051 3.32747 11.0952 5.93592C12.7698 8.85828 13.7696 11.4363 13.7696 12.832C13.7696 16.1383 11.0797 18.8281 7.77347 18.8281ZM15.5976 12.447C15.3657 12.447 15.1374 12.4166 14.9164 12.3574C14.7873 11.0661 14.1754 9.46101 13.5067 8.02948C14.1582 6.5744 15.1249 5.14057 15.5971 4.59349C15.8953 4.93717 16.4234 5.66143 17.0108 6.69995C17.7697 8.04167 18.2227 9.20875 18.2227 9.82191C18.2227 11.2693 17.0451 12.447 15.5976 12.447Z" fill="white" fill-opacity="0.54" />
            <path fill-rule="evenodd" clip-rule="evenodd" d="M9.38217 10.0454C9.1019 9.88353 8.74358 9.97966 8.58178 10.2599L5.9503 14.8178C5.7885 15.0981 5.88452 15.4564 6.16475 15.6182C6.25702 15.6715 6.35776 15.6968 6.45718 15.6968C6.65968 15.6968 6.85663 15.5917 6.96514 15.4037L9.59663 10.8458C9.75842 10.5656 9.66241 10.2072 9.38217 10.0454Z" fill="white" fill-opacity="0.54" />
            <path fill-rule="evenodd" clip-rule="evenodd" d="M6.30859 11.2109C6.30859 10.8882 6.04539 10.625 5.72266 10.625C5.39992 10.625 5.13672 10.8882 5.13672 11.2109C5.13672 11.5337 5.39996 11.7969 5.72266 11.7969C6.04535 11.7969 6.30859 11.5337 6.30859 11.2109Z" fill="white" fill-opacity="0.54" />
            <path fill-rule="evenodd" clip-rule="evenodd" d="M9.62902 13.9453C9.30629 13.9453 9.04309 14.2085 9.04309 14.5312C9.04309 14.854 9.30633 15.1172 9.62902 15.1172C9.95176 15.1172 10.215 14.8539 10.215 14.5312C10.215 14.2085 9.95172 13.9453 9.62902 13.9453Z" fill="white" fill-opacity="0.54" />
        </symbol>
        <symbol id="barometer" width="20" height="20" viewBox="0 0 20 20" fill="none">
            <path d="M11.5554 2.57531C11.6844 2.33094 11.7578 2.05285 11.7578 1.75781C11.7578 0.788555 10.9692 0 9.99995 0C9.0307 0 8.24214 0.788555 8.24214 1.75781C8.24214 2.05285 8.31554 2.33094 8.44453 2.57531C4.34179 3.31164 1.21863 6.9073 1.21863 11.2187C1.21863 16.0607 5.15792 20 9.99995 20C14.842 20 18.7813 16.0607 18.7813 11.2187C18.7813 6.9073 15.6581 3.31168 11.5554 2.57531ZM9.99995 1.17188C10.323 1.17188 10.5859 1.43473 10.5859 1.75781C10.5859 2.0809 10.323 2.34375 9.99995 2.34375C9.67687 2.34375 9.41402 2.0809 9.41402 1.75781C9.41402 1.43473 9.67687 1.17188 9.99995 1.17188ZM9.99995 18.8281C5.8041 18.8281 2.3905 15.4145 2.3905 11.2187C2.3905 7.02281 5.8041 3.60922 9.99995 3.60922C14.1958 3.60922 17.6094 7.02281 17.6094 11.2187C17.6094 15.4145 14.1958 18.8281 9.99995 18.8281Z" fill="white" fill-opacity="0.54" />
            <path d="M14.5825 6.68113C14.5743 6.67184 14.5663 6.66234 14.5574 6.65344C14.548 6.64402 14.538 6.63563 14.5282 6.62699C13.3621 5.47688 11.7621 4.76562 9.99992 4.76562C8.23019 4.76562 6.62476 5.48188 5.45777 6.63953C5.45269 6.64426 5.44734 6.64848 5.44242 6.65344C5.43828 6.65758 5.4348 6.66207 5.43082 6.66625C4.26723 7.83406 3.54688 9.44379 3.54688 11.2187C3.54688 11.5423 3.80922 11.8046 4.13281 11.8046H4.79687C5.12047 11.8046 5.38281 11.5423 5.38281 11.2187C5.38281 10.8951 5.12047 10.6327 4.79687 10.6327H4.75145C4.86453 9.61309 5.26898 8.68016 5.87957 7.91922L5.91199 7.95164C6.02641 8.06605 6.17637 8.12328 6.32629 8.12328C6.47621 8.12328 6.62621 8.06609 6.74059 7.95164C6.96941 7.72281 6.96941 7.35184 6.74059 7.12301L6.70902 7.09145C7.46844 6.48469 8.39816 6.08289 9.41398 5.97023V6.01562C9.41398 6.33922 9.67633 6.60156 9.99992 6.60156C10.3235 6.60156 10.5859 6.33922 10.5859 6.01562V5.97023C11.6013 6.08297 12.5309 6.48496 13.2904 7.09184L13.2593 7.12297C13.0304 7.3518 13.0304 7.72277 13.2593 7.9516C13.3737 8.06602 13.5236 8.12324 13.6736 8.12324C13.8235 8.12324 13.9735 8.06605 14.0879 7.9516L14.1198 7.91961C14.729 8.67863 15.1331 9.60867 15.2475 10.625H15.1952C14.8716 10.625 14.6093 10.8873 14.6093 11.2109C14.6093 11.5345 14.8716 11.7969 15.1952 11.7969C15.1952 11.7969 15.8675 11.7968 15.8678 11.7968C16.1914 11.7964 16.4534 11.5337 16.453 11.2101C16.4506 9.44629 15.736 7.84598 14.5825 6.68113Z" fill="white" fill-opacity="0.54" />
            <path d="M12.6571 8.56151C12.4283 8.33269 12.0573 8.33269 11.8285 8.56151L9.38164 11.0084C9.11074 10.8789 8.80836 10.8192 8.50207 10.8407C8.17925 10.8632 7.93582 11.1432 7.95836 11.466C7.9809 11.7888 8.26058 12.0324 8.58367 12.0097C8.75293 11.9978 8.91879 12.0599 9.03875 12.1799C9.15687 12.298 9.21906 12.4614 9.20937 12.6282C9.19062 12.9512 9.4373 13.2283 9.76035 13.2471C9.77191 13.2478 9.78339 13.2481 9.79484 13.2481C10.1029 13.248 10.3612 13.0076 10.3793 12.6961C10.3966 12.3972 10.3364 12.1021 10.2101 11.8373L12.6571 9.39019C12.8859 9.16132 12.8859 8.79034 12.6571 8.56151Z" fill="white" fill-opacity="0.54" />
            <path d="M13.3594 15.4297H6.64062C6.31703 15.4297 6.05469 15.692 6.05469 16.0156C6.05469 16.3392 6.31703 16.6016 6.64062 16.6016H13.3594C13.683 16.6016 13.9453 16.3392 13.9453 16.0156C13.9453 15.692 13.683 15.4297 13.3594 15.4297Z" fill="white" fill-opacity="0.54" />
        </symbol>
    </defs>
</svg>