<svg aria-hidden="true" style="position:absolute;width:0;height:0" xmlns="http://www.w3.org/2000/svg" overflow="hidden">
    <defs>
        <symbol id="arrow-left" viewBox="0 0 24 24">
            <path d="M15.41 16.59L10.83 12l4.58-4.59L14 6l-6 6 6 6z"/>
        </symbol>
        <symbol id="arrow-right" viewBox="0 0 24 24">
            <path d="M8.59 16.59L13.17 12l-4.58-4.59L10 6l6 6-6 6z"/>
        </symbol>
        <symbol id="star" width="22" height="20" viewBox="0 0 22 20" fill="none">
            <path d="M12.9941 7.75488L13.1064 8.10059H19.9229L14.7021 11.8936L14.4082 12.1074L14.5205 12.4531L16.5146 18.5898L11.2939 14.7969L11 14.584L10.7061 14.7969L5.48438 18.5898L7.47949 12.4531L7.5918 12.1074L7.29785 11.8936L2.07715 8.10059H8.89355L9.00586 7.75488L11 1.61719L12.9941 7.75488Z" stroke="#7E8691"/>
        </symbol>
        <symbol id="location" width="22" height="22" viewBox="0 0 22 22" fill="none">
            <circle cx="11" cy="11" r="8" stroke="#AEB3B9" stroke-width="2"/>
            <rect x="10" width="2" height="4" fill="#AEB3B9"/>
            <rect x="10" y="18" width="2" height="4" fill="#AEB3B9"/>
            <rect x="4" y="10" width="2" height="4" transform="rotate(90 4 10)" fill="#AEB3B9"/>
            <rect x="22" y="10" width="2" height="4" transform="rotate(90 22 10)" fill="#AEB3B9"/>
        </symbol>
        <symbol id="circle-left" width="28" height="28" viewBox="0 0 28 28" fill="none">
            <circle cx="14" cy="14" r="14" fill="white" fill-opacity="0.2" />
            <path d="M12 11L16 15L12 19" stroke-width="1.5" fill="black" />
        </symbol>
        <symbol id="vertical-line" width="1" height="40" viewBox="0 0 1 40" fill="white">
            <path d="M0.5 0V40" stroke="#27384A"/>
        </symbol>
        <symbol id="sunrise" width="20" height="20" viewBox="0 0 20 20" fill="none" >
            <path d="M10 3.18918C10.3236 3.18918 10.5859 2.92684 10.5859 2.60324V0.585938C10.5859 0.262344 10.3236 0 10 0C9.67641 0 9.41406 0.262344 9.41406 0.585938V2.60324C9.41406 2.92684 9.67641 3.18918 10 3.18918Z" fill="#FF6B09"/>
            <path d="M19.414 9.41406H17.3967C17.0731 9.41406 16.8108 9.67641 16.8108 10C16.8108 10.3236 17.0731 10.5859 17.3967 10.5859H19.414C19.7376 10.5859 20 10.3236 20 10C20 9.67641 19.7376 9.41406 19.414 9.41406Z" fill="#FF6B09"/>
            <path d="M3.18918 10C3.18918 9.67641 2.92684 9.41406 2.60324 9.41406H0.585938C0.262344 9.41406 0 9.67641 0 10C0 10.3236 0.262344 10.5859 0.585938 10.5859H2.60324C2.92684 10.5859 3.18918 10.3236 3.18918 10Z" fill="#FF6B09"/>
            <path d="M15.2304 5.35552C15.3803 5.35552 15.5303 5.29829 15.6447 5.18388L17.0711 3.7574C17.2999 3.52857 17.2999 3.15759 17.0711 2.92876C16.8423 2.69997 16.4713 2.69997 16.2425 2.92876L14.816 4.35525C14.5872 4.58408 14.5872 4.95505 14.816 5.18388C14.9305 5.29833 15.0804 5.35552 15.2304 5.35552Z" fill="#FF6B09"/>
            <path d="M15.6447 14.8159C15.4159 14.5871 15.0449 14.5871 14.816 14.8159C14.5872 15.0447 14.5872 15.4157 14.816 15.6445L16.2425 17.071C16.3569 17.1854 16.5069 17.2426 16.6568 17.2426C16.8067 17.2426 16.9567 17.1854 17.0711 17.071C17.2999 16.8422 17.2999 16.4712 17.0711 16.2424L15.6447 14.8159Z" fill="#FF6B09"/>
            <path d="M4.35543 14.8158L2.92895 16.2423C2.70012 16.4711 2.70012 16.8421 2.92895 17.071C3.04336 17.1854 3.19332 17.2426 3.34324 17.2426C3.49316 17.2426 3.64317 17.1854 3.75754 17.071L5.18399 15.6445C5.41282 15.4157 5.41282 15.0447 5.18399 14.8158C4.95524 14.5871 4.58422 14.5871 4.35543 14.8158Z" fill="#FF6B09"/>
            <path d="M4.35539 5.1839C4.4698 5.29832 4.61977 5.35554 4.76969 5.35554C4.91961 5.35554 5.06961 5.29832 5.18398 5.1839C5.41281 4.95511 5.41281 4.5841 5.18398 4.35527L3.75758 2.92882C3.52879 2.70004 3.15777 2.70004 2.92895 2.92882C2.70012 3.15761 2.70012 3.52863 2.92895 3.75746L4.35539 5.1839Z" fill="#FF6B09"/>
            <path d="M12.6138 3.71079C12.6873 3.74134 12.7635 3.75579 12.8384 3.75579C13.0681 3.75579 13.2861 3.61989 13.3797 3.39458L14.1538 1.53177C14.278 1.23294 14.1365 0.890008 13.8376 0.765828C13.5388 0.641687 13.1959 0.783172 13.0717 1.08208L12.2976 2.94489C12.1734 3.24368 12.315 3.58657 12.6138 3.71079Z" fill="#FF6B09"/>
            <path d="M18.9181 13.0717L17.0553 12.2976C16.7565 12.1734 16.4136 12.3149 16.2894 12.6138C16.1652 12.9126 16.3068 13.2555 16.6056 13.3797L18.4684 14.1539C18.542 14.1844 18.6181 14.1989 18.6931 14.1989C18.9227 14.1989 19.1407 14.063 19.2344 13.8376C19.3585 13.5388 19.217 13.1959 18.9181 13.0717Z" fill="#FF6B09"/>
            <path d="M7.38624 16.2894C7.08745 16.1652 6.74452 16.3068 6.6203 16.6056L5.84616 18.4684C5.72198 18.7672 5.86354 19.1102 6.16237 19.2343C6.23589 19.2649 6.31206 19.2793 6.38698 19.2793C6.61663 19.2793 6.83464 19.1434 6.92827 18.9181L7.70241 17.0553C7.82663 16.7565 7.68507 16.4136 7.38624 16.2894Z" fill="#FF6B09"/>
            <path d="M1.08196 6.92817L2.94477 7.70231C3.01829 7.73286 3.09446 7.74731 3.16938 7.74731C3.39903 7.74731 3.61704 7.61141 3.71067 7.3861C3.83485 7.08727 3.69329 6.74434 3.39446 6.62016L1.53165 5.84602C1.23298 5.72188 0.88993 5.8634 0.765712 6.16223C0.641532 6.46106 0.783134 6.80399 1.08196 6.92817Z" fill="#FF6B09"/>
            <path d="M16.2955 7.40088C16.3888 7.62685 16.6071 7.76338 16.8373 7.76338C16.9118 7.76338 16.9875 7.74908 17.0607 7.71889L18.9253 6.94908C19.2244 6.82556 19.3668 6.48298 19.2434 6.18388C19.1198 5.88474 18.7772 5.7424 18.4782 5.86583L16.6135 6.63564C16.3144 6.7592 16.172 7.10177 16.2955 7.40088Z" fill="#FF6B09"/>
            <path d="M13.3643 16.6136C13.2408 16.3144 12.8982 16.1721 12.5991 16.2955C12.3 16.419 12.1576 16.7616 12.2811 17.0607L13.0509 18.9253C13.1442 19.1513 13.3625 19.2878 13.5927 19.2878C13.6672 19.2878 13.7429 19.2735 13.8161 19.2433C14.1152 19.1198 14.2576 18.7772 14.1341 18.4781L13.3643 16.6136Z" fill="#FF6B09"/>
            <path d="M3.7045 12.5991C3.58102 12.3 3.23848 12.1577 2.9393 12.2811L1.07465 13.0509C0.77555 13.1744 0.633168 13.517 0.756644 13.8161C0.849925 14.0421 1.06828 14.1786 1.29848 14.1786C1.37297 14.1786 1.44871 14.1643 1.52184 14.1341L3.38649 13.3643C3.68563 13.2408 3.82801 12.8982 3.7045 12.5991Z" fill="#FF6B09"/>
            <path d="M6.63582 3.38662C6.7291 3.61264 6.94746 3.74912 7.17766 3.74912C7.25215 3.74912 7.32789 3.73483 7.40102 3.70463C7.70012 3.58115 7.8425 3.23854 7.71902 2.93944L6.94922 1.07483C6.82574 0.775686 6.48317 0.633342 6.18403 0.75678C5.88492 0.880256 5.74254 1.22287 5.86602 1.52198L6.63582 3.38662Z" fill="#FF6B09"/>
            <path d="M10.5859 15.398C13.3053 15.1048 15.4297 12.7959 15.4297 10C15.4297 7.00605 12.994 4.57031 10 4.57031C7.00602 4.57031 4.57031 7.00605 4.57031 10C4.57031 12.7959 6.69469 15.1048 9.41406 15.398V19.4141C9.41406 19.7377 9.67641 20 10 20C10.3236 20 10.5859 19.7377 10.5859 19.4141V15.398ZM5.74219 10C5.74219 7.65223 7.65223 5.74219 10 5.74219C12.3478 5.74219 14.2578 7.65223 14.2578 10C14.2578 12.149 12.6574 13.9309 10.5859 14.2173V11.9812L10.7185 12.1137C10.9473 12.3425 11.3183 12.3425 11.5471 12.1137C11.776 11.885 11.776 11.5139 11.5471 11.2851L10.4113 10.1493C10.1848 9.92281 9.81844 9.92016 9.58871 10.1434L8.4168 11.2818C8.18469 11.5073 8.1793 11.8783 8.4048 12.1104C8.51969 12.2286 8.6723 12.288 8.82512 12.288C8.97223 12.288 9.11949 12.233 9.23336 12.1224L9.41406 11.9468V14.2174C7.34258 13.9309 5.74219 12.1489 5.74219 10Z" fill="#FF6B09"/>
        </symbol>
        <symbol id="sunset" width="20" height="20" viewBox="0 0 20 20" fill="none" >
            <path d="M10 3.18918C10.3236 3.18918 10.5859 2.92684 10.5859 2.60324V0.585938C10.5859 0.262344 10.3236 0 10 0C9.67641 0 9.41406 0.262344 9.41406 0.585938V2.60324C9.41406 2.92684 9.67641 3.18918 10 3.18918Z" fill="#FF6B09" />
            <path d="M19.414 9.41406H17.3967C17.0731 9.41406 16.8108 9.67641 16.8108 10C16.8108 10.3236 17.0731 10.5859 17.3967 10.5859H19.414C19.7376 10.5859 20 10.3236 20 10C20 9.67641 19.7376 9.41406 19.414 9.41406Z" fill="#FF6B09" />
            <path d="M3.18918 10C3.18918 9.67641 2.92684 9.41406 2.60324 9.41406H0.585938C0.262344 9.41406 0 9.67641 0 10C0 10.3236 0.262344 10.5859 0.585938 10.5859H2.60324C2.92684 10.5859 3.18918 10.3236 3.18918 10Z" fill="#FF6B09" />
            <path d="M15.2304 5.35554C15.3803 5.35554 15.5303 5.29832 15.6447 5.1839L17.0711 3.75746C17.2999 3.52867 17.2999 3.15765 17.0711 2.92882C16.8423 2.70004 16.4713 2.70004 16.2425 2.92882L14.816 4.35527C14.5872 4.58406 14.5872 4.95507 14.816 5.1839C14.9305 5.29836 15.0804 5.35554 15.2304 5.35554Z" fill="#FF6B09" />
            <path d="M15.6447 14.8159C15.4159 14.5871 15.0449 14.5871 14.816 14.8159C14.5872 15.0447 14.5872 15.4157 14.816 15.6445L16.2425 17.071C16.3569 17.1854 16.5069 17.2426 16.6568 17.2426C16.8067 17.2426 16.9567 17.1854 17.0711 17.071C17.2999 16.8422 17.2999 16.4712 17.0711 16.2424L15.6447 14.8159Z" fill="#FF6B09" />
            <path d="M4.35539 14.8158L2.92895 16.2423C2.70012 16.4712 2.70012 16.8421 2.92895 17.071C3.04336 17.1854 3.19332 17.2426 3.34324 17.2426C3.49317 17.2426 3.64317 17.1854 3.75754 17.071L5.18399 15.6445C5.41282 15.4157 5.41282 15.0447 5.18399 14.8158C4.95524 14.5871 4.58418 14.5871 4.35539 14.8158Z" fill="#FF6B09" />
            <path d="M4.35543 5.1839C4.46985 5.29832 4.61981 5.35554 4.76973 5.35554C4.91965 5.35554 5.06965 5.29832 5.18403 5.1839C5.41286 4.95507 5.41286 4.5841 5.18403 4.35527L3.75758 2.92882C3.52879 2.70004 3.15777 2.70004 2.92895 2.92882C2.70012 3.15765 2.70012 3.52863 2.92895 3.75746L4.35543 5.1839Z" fill="#FF6B09" />
            <path d="M12.6138 3.71079C12.6873 3.74134 12.7635 3.75579 12.8384 3.75579C13.0681 3.75579 13.2861 3.61989 13.3797 3.39458L14.1538 1.53177C14.278 1.23294 14.1365 0.890008 13.8376 0.765828C13.5388 0.641687 13.1959 0.783172 13.0717 1.08208L12.2976 2.94489C12.1734 3.24368 12.315 3.58657 12.6138 3.71079Z" fill="#FF6B09" />
            <path d="M18.918 13.0717L17.0552 12.2976C16.7563 12.1734 16.4135 12.3149 16.2893 12.6138C16.1651 12.9126 16.3067 13.2555 16.6055 13.3797L18.4683 14.1539C18.5418 14.1844 18.618 14.1989 18.6929 14.1989C18.9226 14.1989 19.1406 14.063 19.2342 13.8377C19.3584 13.5389 19.2168 13.1959 18.918 13.0717Z" fill="#FF6B09" />
            <path d="M7.38636 16.2893C7.0875 16.1651 6.74461 16.3066 6.62043 16.6055L5.84628 18.4683C5.7221 18.7671 5.86367 19.1101 6.1625 19.2342C6.23605 19.2648 6.31218 19.2792 6.38714 19.2792C6.61679 19.2792 6.8348 19.1433 6.92843 18.918L7.70257 17.0552C7.82672 16.7564 7.68515 16.4135 7.38636 16.2893Z" fill="#FF6B09" />
            <path d="M1.08193 6.92817L2.94474 7.70231C3.0183 7.73286 3.09443 7.74731 3.16939 7.74731C3.39904 7.74731 3.61705 7.61141 3.71068 7.3861C3.83486 7.08727 3.6933 6.74434 3.39447 6.62016L1.53166 5.84602C1.23283 5.72188 0.889897 5.8634 0.765718 6.16223C0.641538 6.46106 0.7831 6.80399 1.08193 6.92817Z" fill="#FF6B09" />
            <path d="M16.2955 7.40088C16.3888 7.62685 16.6071 7.76338 16.8373 7.76338C16.9118 7.76338 16.9875 7.74908 17.0607 7.71889L18.9253 6.94908C19.2244 6.82556 19.3668 6.48298 19.2433 6.18388C19.1198 5.88474 18.7771 5.7424 18.4781 5.86583L16.6135 6.63564C16.3143 6.7592 16.172 7.10177 16.2955 7.40088Z" fill="#FF6B09" />
            <path d="M13.3642 16.6136C13.2407 16.3144 12.898 16.1721 12.599 16.2955C12.2999 16.419 12.1575 16.7616 12.2809 17.0607L13.0507 18.9254C13.1441 19.1513 13.3624 19.2879 13.5926 19.2879C13.6671 19.2879 13.7428 19.2736 13.8159 19.2434C14.115 19.1199 14.2575 18.7773 14.134 18.4782L13.3642 16.6136Z" fill="#FF6B09" />
            <path d="M3.70462 12.5989C3.5811 12.2998 3.23848 12.1575 2.93942 12.2809L1.07481 13.0507C0.775672 13.1742 0.633289 13.5168 0.756766 13.8159C0.850086 14.0419 1.06845 14.1784 1.2986 14.1784C1.37309 14.1784 1.44884 14.1641 1.52196 14.1339L3.38657 13.3641C3.68575 13.2406 3.82809 12.898 3.70462 12.5989Z" fill="#FF6B09" />
            <path d="M6.6357 3.38665C6.72902 3.61262 6.94738 3.74915 7.17754 3.74915C7.25203 3.74915 7.32777 3.73485 7.4009 3.70466C7.70004 3.58114 7.84242 3.23856 7.71894 2.93946L6.94914 1.07485C6.82562 0.775749 6.48297 0.633405 6.18394 0.756804C5.8848 0.88032 5.74242 1.2229 5.8659 1.522L6.6357 3.38665Z" fill="#FF6B09" />
            <path d="M10.7185 17.8639L10.5859 17.9965V15.398C13.3053 15.1048 15.4297 12.796 15.4297 10C15.4297 7.00611 12.9939 4.57037 10 4.57037C7.00605 4.57037 4.57031 7.00611 4.57031 10C4.57031 12.796 6.69469 15.1049 9.41406 15.398V18.0309L9.23332 17.8554C9.00125 17.6299 8.63027 17.6353 8.40477 17.8673C8.1793 18.0995 8.18465 18.4704 8.41676 18.6959L9.58871 19.8344C9.7025 19.9449 9.84977 20 9.99695 20C10.147 20 10.297 19.9427 10.4113 19.8284L11.5471 18.6926C11.7759 18.4638 11.7759 18.0928 11.5471 17.8639C11.3183 17.6351 10.9473 17.6351 10.7185 17.8639ZM5.74219 10C5.74219 7.65224 7.65223 5.7422 10 5.7422C12.3478 5.7422 14.2578 7.65224 14.2578 10C14.2578 12.149 12.6574 13.9309 10.5859 14.2173V12.8264C10.5859 12.5028 10.3236 12.2405 10 12.2405C9.67641 12.2405 9.41406 12.5028 9.41406 12.8264V14.2173C7.34258 13.9309 5.74219 12.149 5.74219 10Z" fill="#FF6B09" />
        </symbol>
        <symbol id="wind" width="35" height="35" viewBox="0 0 35 35" fill="none">
            <path d="M27.689 2.89124C26.0307 2.89124 24.4052 3.46299 23.1121 4.50117C22.6705 4.85575 22.6 5.50106 22.9544 5.94266C23.309 6.38419 23.9544 6.45488 24.396 6.1003C25.3264 5.35333 26.4959 4.94202 27.689 4.94202C30.5895 4.94202 32.9492 7.30171 32.9492 10.2022C32.9492 13.1027 30.5894 15.4624 27.689 15.4624H8.40808C7.84179 15.4624 7.38269 15.9215 7.38269 16.4878C7.38269 17.0541 7.84179 17.5132 8.40808 17.5132H27.689C31.7203 17.5132 35 14.2335 35 10.2022C35 6.17091 31.7202 2.89124 27.689 2.89124Z" fill="black"/>
            <path d="M6.44373 13.4185H17.3974C17.9638 13.4185 18.4228 12.9594 18.4228 12.3931C18.4228 11.8268 17.9638 11.3677 17.3974 11.3677H6.44373C5.87744 11.3677 5.41833 11.8268 5.41833 12.3931C5.41833 12.9594 5.87744 13.4185 6.44373 13.4185Z" fill="black"/>
            <path d="M17.11 19.5709H1.02539C0.459102 19.5709 0 20.03 0 20.5963C0 21.1626 0.459102 21.6217 1.02539 21.6217H17.11C19.4359 21.6217 21.3283 23.514 21.3283 25.8399C21.3283 28.1658 19.4359 30.0581 17.11 30.0581C16.1532 30.0581 15.2154 29.7282 14.4693 29.1292C14.0278 28.7747 13.3824 28.8452 13.0278 29.2868C12.6732 29.7284 12.7438 30.3738 13.1854 30.7283C14.2943 31.6185 15.6881 32.1088 17.11 32.1088C20.5667 32.1088 23.379 29.2965 23.379 25.8398C23.379 22.3831 20.5667 19.5709 17.11 19.5709Z" fill="black"/>
            <path d="M1.02539 13.4185H2.40864C2.97493 13.4185 3.43403 12.9594 3.43403 12.3931C3.43403 11.8268 2.97493 11.3677 2.40864 11.3677H1.02539C0.459102 11.3677 0 11.8268 0 12.3931C0 12.9594 0.459102 13.4185 1.02539 13.4185Z" fill="black"/>
            <path d="M13.3984 24.6778C13.3984 24.1115 12.9393 23.6524 12.373 23.6524H6.2207C5.65441 23.6524 5.19531 24.1115 5.19531 24.6778C5.19531 25.2441 5.65441 25.7032 6.2207 25.7032H12.373C12.9394 25.7032 13.3984 25.2441 13.3984 24.6778Z" fill="black"/>
        </symbol>
        <symbol id="humidity" width="35" height="35" viewBox="0 0 35 35" fill="none">
            <path fill-rule="evenodd" clip-rule="evenodd" d="M30.3033 10.2796C29.6508 9.16279 28.9532 8.10691 28.339 7.30635C27.4337 6.12619 26.899 5.70789 26.2957 5.70789C25.7237 5.70789 25.2586 6.10848 24.7362 6.70998C24.3515 7.15288 23.893 7.76702 23.4104 8.48576C22.7186 9.51573 22.0544 10.639 21.4865 11.7289C20.8781 10.5626 20.3094 9.55743 19.8889 8.83781C18.5732 6.58618 17.17 4.46156 15.9377 2.85518C13.9168 0.220665 13.157 0 12.6034 0C12.0499 0 11.2901 0.220665 9.26906 2.85525C8.03681 4.46163 6.63359 6.58625 5.31795 8.83788C3.73686 11.5436 0.0594482 18.287 0.0594482 22.4561C0.0594482 29.3729 5.68668 35.0001 12.6034 35.0001C19.0932 35.0001 24.4475 30.0462 25.0839 23.7213C25.4817 23.7948 25.8866 23.833 26.2957 23.833C29.9596 23.833 32.9404 20.8523 32.9404 17.1883C32.9404 15.1038 31.2883 11.9651 30.3033 10.2796ZM12.6034 32.9492C6.81748 32.9492 2.11024 28.242 2.11024 22.456C2.11024 20.0134 3.85977 15.5019 6.79028 10.3879C9.40606 5.82315 11.7382 2.88799 12.6034 2.1642C13.4687 2.88799 15.8008 5.82308 18.4165 10.3879C21.3471 15.502 23.0966 20.0134 23.0966 22.456C23.0966 28.242 18.3894 32.9492 12.6034 32.9492ZM26.2957 21.7822C25.8898 21.7822 25.4903 21.7291 25.1035 21.6255C24.8776 19.3657 23.8069 16.5568 22.6365 14.0516C23.7768 11.5052 25.4685 8.99599 26.2947 8.03862C26.8166 8.64004 27.7408 9.9075 28.7687 11.7249C30.0968 14.0729 30.8896 16.1153 30.8896 17.1883C30.8896 19.7213 28.8288 21.7822 26.2957 21.7822Z" fill="black" />
            <path fill-rule="evenodd" clip-rule="evenodd" d="M15.4186 17.5796C14.9281 17.2962 14.3011 17.4645 14.0179 17.9549L9.41281 25.9312C9.12967 26.4217 9.2977 27.0488 9.78811 27.3319C9.94957 27.4251 10.1259 27.4695 10.2998 27.4695C10.6542 27.4695 10.9989 27.2855 11.1888 26.9566L15.7939 18.9803C16.077 18.4898 15.909 17.8627 15.4186 17.5796Z" fill="black" />
            <path fill-rule="evenodd" clip-rule="evenodd" d="M10.04 19.6191C10.04 19.0543 9.57943 18.5937 9.01465 18.5937C8.44986 18.5937 7.98926 19.0544 7.98926 19.6191C7.98926 20.1839 8.44993 20.6445 9.01465 20.6445C9.57937 20.6445 10.04 20.1839 10.04 19.6191Z" fill="black" />
            <path fill-rule="evenodd" clip-rule="evenodd" d="M15.8506 24.4041C15.2858 24.4041 14.8252 24.8647 14.8252 25.4295C14.8252 25.9943 15.2859 26.4549 15.8506 26.4549C16.4154 26.4549 16.876 25.9942 16.876 25.4295C16.876 24.8647 16.4153 24.4041 15.8506 24.4041Z" fill="black" />
        </symbol>
        <symbol id="barometer" width="35" height="35" viewBox="0 0 35 35" fill="none">
            <path d="M20.2221 4.5068C20.4477 4.07914 20.5762 3.59249 20.5762 3.07617C20.5762 1.37997 19.1962 0 17.5 0C15.8038 0 14.4238 1.37997 14.4238 3.07617C14.4238 3.59249 14.5523 4.07914 14.778 4.5068C7.59823 5.79537 2.13269 12.0878 2.13269 19.6327C2.13269 28.1062 9.02646 35 17.5 35C25.9736 35 32.8673 28.1062 32.8673 19.6327C32.8673 12.0878 27.4018 5.79544 20.2221 4.5068ZM17.5 2.05078C18.0654 2.05078 18.5254 2.51077 18.5254 3.07617C18.5254 3.64157 18.0654 4.10156 17.5 4.10156C16.9346 4.10156 16.4746 3.64157 16.4746 3.07617C16.4746 2.51077 16.9346 2.05078 17.5 2.05078ZM17.5 32.9492C10.1573 32.9492 4.18347 26.9754 4.18347 19.6327C4.18347 12.2899 10.1573 6.31613 17.5 6.31613C24.8428 6.31613 30.8166 12.2899 30.8166 19.6327C30.8166 26.9754 24.8428 32.9492 17.5 32.9492Z" fill="black" />
            <path d="M25.5194 11.692C25.5051 11.6757 25.4912 11.6591 25.4756 11.6435C25.4591 11.627 25.4417 11.6123 25.4244 11.5972C23.3837 9.58453 20.5838 8.33984 17.5 8.33984C14.403 8.33984 11.5935 9.59328 9.55122 11.6192C9.54234 11.6275 9.53297 11.6348 9.52436 11.6435C9.51711 11.6508 9.51103 11.6586 9.50406 11.6659C7.46777 13.7096 6.20715 16.5266 6.20715 19.6327C6.20715 20.199 6.66625 20.6581 7.23254 20.6581H8.39465C8.96094 20.6581 9.42004 20.199 9.42004 19.6327C9.42004 19.0664 8.96094 18.6073 8.39465 18.6073H8.31515C8.51305 16.8229 9.22084 15.1903 10.2894 13.8586L10.3461 13.9154C10.5463 14.1156 10.8088 14.2157 11.0711 14.2157C11.3335 14.2157 11.596 14.1157 11.7961 13.9154C12.1966 13.5149 12.1966 12.8657 11.7961 12.4653L11.7409 12.41C13.0699 11.3482 14.6969 10.6451 16.4746 10.4479V10.5273C16.4746 11.0936 16.9337 11.5527 17.5 11.5527C18.0663 11.5527 18.5254 11.0936 18.5254 10.5273V10.4479C20.3024 10.6452 21.9293 11.3487 23.2583 12.4107L23.2038 12.4652C22.8034 12.8656 22.8034 13.5149 23.2038 13.9153C23.404 14.1155 23.6665 14.2157 23.9288 14.2157C24.1912 14.2157 24.4537 14.1156 24.6539 13.9153L24.7098 13.8593C25.7758 15.1876 26.4831 16.8152 26.6832 18.5938H26.5918C26.0255 18.5938 25.5664 19.0529 25.5664 19.6191C25.5664 20.1854 26.0255 20.6445 26.5918 20.6445C26.5918 20.6445 27.7683 20.6444 27.7688 20.6444C28.3351 20.6436 28.7936 20.1839 28.7928 19.6176C28.7886 16.531 27.5381 13.7305 25.5194 11.692Z" fill="black" />
            <path d="M22.1499 14.9825C21.7495 14.5821 21.1002 14.5821 20.6998 14.9825L16.4178 19.2645C15.9438 19.038 15.4146 18.9334 14.8786 18.971C14.3137 19.0105 13.8876 19.5004 13.9271 20.0653C13.9665 20.6302 14.456 21.0565 15.0214 21.0168C15.3176 20.996 15.6078 21.1047 15.8178 21.3147C16.0245 21.5214 16.1333 21.8073 16.1164 22.0992C16.0836 22.6645 16.5152 23.1494 17.0806 23.1822C17.1008 23.1835 17.1209 23.184 17.1409 23.184C17.68 23.184 18.132 22.7631 18.1637 22.218C18.194 21.6949 18.0887 21.1786 17.8676 20.7151L22.1499 16.4327C22.5504 16.0322 22.5504 15.383 22.1499 14.9825Z" fill="black" />
            <path d="M23.3789 27.002H11.6211C11.0548 27.002 10.5957 27.4611 10.5957 28.0273C10.5957 28.5936 11.0548 29.0527 11.6211 29.0527H23.3789C23.9452 29.0527 24.4043 28.5936 24.4043 28.0273C24.4043 27.4611 23.9452 27.002 23.3789 27.002Z" fill="black" />
        </symbol>
    </defs>
</svg>